<svg width="1000" height="500" viewBox="0 0 1000 500" fill="none" xmlns="http://www.w3.org/2000/svg">
<path d="M194.773 229.5C194.348 225.53 192.561 222.439 189.409 220.227C186.288 218.015 182.227 216.909 177.227 216.909C173.712 216.909 170.697 217.439 168.182 218.5C165.667 219.561 163.742 221 162.409 222.818C161.076 224.636 160.394 226.712 160.364 229.045C160.364 230.985 160.803 232.667 161.682 234.091C162.591 235.515 163.818 236.727 165.364 237.727C166.909 238.697 168.621 239.515 170.5 240.182C172.379 240.848 174.273 241.409 176.182 241.864L184.909 244.045C188.424 244.864 191.803 245.97 195.045 247.364C198.318 248.758 201.242 250.515 203.818 252.636C206.424 254.758 208.485 257.318 210 260.318C211.515 263.318 212.273 266.833 212.273 270.864C212.273 276.318 210.879 281.121 208.091 285.273C205.303 289.394 201.273 292.621 196 294.955C190.758 297.258 184.409 298.409 176.955 298.409C169.712 298.409 163.424 297.288 158.091 295.045C152.788 292.803 148.636 289.53 145.636 285.227C142.667 280.924 141.061 275.682 140.818 269.5H157.409C157.652 272.742 158.652 275.439 160.409 277.591C162.167 279.742 164.455 281.348 167.273 282.409C170.121 283.47 173.303 284 176.818 284C180.485 284 183.697 283.455 186.455 282.364C189.242 281.242 191.424 279.697 193 277.727C194.576 275.727 195.379 273.394 195.409 270.727C195.379 268.303 194.667 266.303 193.273 264.727C191.879 263.121 189.924 261.788 187.409 260.727C184.924 259.636 182.015 258.667 178.682 257.818L168.091 255.091C160.424 253.121 154.364 250.136 149.909 246.136C145.485 242.106 143.273 236.758 143.273 230.091C143.273 224.606 144.758 219.803 147.727 215.682C150.727 211.561 154.803 208.364 159.955 206.091C165.106 203.788 170.939 202.636 177.455 202.636C184.061 202.636 189.848 203.788 194.818 206.091C199.818 208.364 203.742 211.53 206.591 215.591C209.439 219.621 210.909 224.258 211 229.5H194.773ZM241.58 275.091L241.534 255.227H244.17L269.261 227.182H288.489L257.625 261.545H254.216L241.58 275.091ZM226.58 297V203.909H243.034V297H226.58ZM270.398 297L247.67 265.227L258.761 253.636L290.08 297H270.398ZM299.455 297V227.182H315.909V297H299.455ZM307.727 217.273C305.121 217.273 302.879 216.409 301 214.682C299.121 212.924 298.182 210.818 298.182 208.364C298.182 205.879 299.121 203.773 301 202.045C302.879 200.288 305.121 199.409 307.727 199.409C310.364 199.409 312.606 200.288 314.455 202.045C316.333 203.773 317.273 205.879 317.273 208.364C317.273 210.818 316.333 212.924 314.455 214.682C312.606 216.409 310.364 217.273 307.727 217.273ZM349.284 203.909V297H332.83V203.909H349.284ZM382.659 203.909V297H366.205V203.909H382.659ZM482.648 229.5C482.223 225.53 480.436 222.439 477.284 220.227C474.163 218.015 470.102 216.909 465.102 216.909C461.587 216.909 458.572 217.439 456.057 218.5C453.542 219.561 451.617 221 450.284 222.818C448.951 224.636 448.269 226.712 448.239 229.045C448.239 230.985 448.678 232.667 449.557 234.091C450.466 235.515 451.693 236.727 453.239 237.727C454.784 238.697 456.496 239.515 458.375 240.182C460.254 240.848 462.148 241.409 464.057 241.864L472.784 244.045C476.299 244.864 479.678 245.97 482.92 247.364C486.193 248.758 489.117 250.515 491.693 252.636C494.299 254.758 496.36 257.318 497.875 260.318C499.39 263.318 500.148 266.833 500.148 270.864C500.148 276.318 498.754 281.121 495.966 285.273C493.178 289.394 489.148 292.621 483.875 294.955C478.633 297.258 472.284 298.409 464.83 298.409C457.587 298.409 451.299 297.288 445.966 295.045C440.663 292.803 436.511 289.53 433.511 285.227C430.542 280.924 428.936 275.682 428.693 269.5H445.284C445.527 272.742 446.527 275.439 448.284 277.591C450.042 279.742 452.33 281.348 455.148 282.409C457.996 283.47 461.178 284 464.693 284C468.36 284 471.572 283.455 474.33 282.364C477.117 281.242 479.299 279.697 480.875 277.727C482.451 275.727 483.254 273.394 483.284 270.727C483.254 268.303 482.542 266.303 481.148 264.727C479.754 263.121 477.799 261.788 475.284 260.727C472.799 259.636 469.89 258.667 466.557 257.818L455.966 255.091C448.299 253.121 442.239 250.136 437.784 246.136C433.36 242.106 431.148 236.758 431.148 230.091C431.148 224.606 432.633 219.803 435.602 215.682C438.602 211.561 442.678 208.364 447.83 206.091C452.981 203.788 458.814 202.636 465.33 202.636C471.936 202.636 477.723 203.788 482.693 206.091C487.693 208.364 491.617 211.53 494.466 215.591C497.314 219.621 498.784 224.258 498.875 229.5H482.648ZM514.455 323.182V227.182H530.636V238.727H531.591C532.439 237.03 533.636 235.227 535.182 233.318C536.727 231.379 538.818 229.727 541.455 228.364C544.091 226.97 547.455 226.273 551.545 226.273C556.939 226.273 561.803 227.652 566.136 230.409C570.5 233.136 573.955 237.182 576.5 242.545C579.076 247.879 580.364 254.424 580.364 262.182C580.364 269.848 579.106 276.364 576.591 281.727C574.076 287.091 570.652 291.182 566.318 294C561.985 296.818 557.076 298.227 551.591 298.227C547.591 298.227 544.273 297.561 541.636 296.227C539 294.894 536.879 293.288 535.273 291.409C533.697 289.5 532.47 287.697 531.591 286H530.909V323.182H514.455ZM530.591 262.091C530.591 266.606 531.227 270.561 532.5 273.955C533.803 277.348 535.667 280 538.091 281.909C540.545 283.788 543.515 284.727 547 284.727C550.636 284.727 553.682 283.758 556.136 281.818C558.591 279.848 560.439 277.167 561.682 273.773C562.955 270.348 563.591 266.455 563.591 262.091C563.591 257.758 562.97 253.909 561.727 250.545C560.485 247.182 558.636 244.545 556.182 242.636C553.727 240.727 550.667 239.773 547 239.773C543.485 239.773 540.5 240.697 538.045 242.545C535.591 244.394 533.727 246.985 532.455 250.318C531.212 253.652 530.591 257.576 530.591 262.091ZM610.909 256.091V297H594.455V203.909H610.545V239.045H611.364C613 235.106 615.53 232 618.955 229.727C622.409 227.424 626.803 226.273 632.136 226.273C636.985 226.273 641.212 227.288 644.818 229.318C648.424 231.348 651.212 234.318 653.182 238.227C655.182 242.136 656.182 246.909 656.182 252.545V297H639.727V255.091C639.727 250.394 638.515 246.742 636.091 244.136C633.697 241.5 630.333 240.182 626 240.182C623.091 240.182 620.485 240.818 618.182 242.091C615.909 243.333 614.121 245.136 612.818 247.5C611.545 249.864 610.909 252.727 610.909 256.091ZM703.864 298.364C696.864 298.364 690.818 296.909 685.727 294C680.667 291.061 676.773 286.909 674.045 281.545C671.318 276.152 669.955 269.803 669.955 262.5C669.955 255.318 671.318 249.015 674.045 243.591C676.803 238.136 680.652 233.894 685.591 230.864C690.53 227.803 696.333 226.273 703 226.273C707.303 226.273 711.364 226.97 715.182 228.364C719.03 229.727 722.424 231.848 725.364 234.727C728.333 237.606 730.667 241.273 732.364 245.727C734.061 250.152 734.909 255.424 734.909 261.545V266.591H677.682V255.5H719.136C719.106 252.348 718.424 249.545 717.091 247.091C715.758 244.606 713.894 242.652 711.5 241.227C709.136 239.803 706.379 239.091 703.227 239.091C699.864 239.091 696.909 239.909 694.364 241.545C691.818 243.152 689.833 245.273 688.409 247.909C687.015 250.515 686.303 253.379 686.273 256.5V266.182C686.273 270.242 687.015 273.727 688.5 276.636C689.985 279.515 692.061 281.727 694.727 283.273C697.394 284.788 700.515 285.545 704.091 285.545C706.485 285.545 708.652 285.212 710.591 284.545C712.53 283.848 714.212 282.833 715.636 281.5C717.061 280.167 718.136 278.515 718.864 276.545L734.227 278.273C733.258 282.333 731.409 285.879 728.682 288.909C725.985 291.909 722.53 294.242 718.318 295.909C714.106 297.545 709.288 298.364 703.864 298.364ZM748.83 297V227.182H764.784V238.818H765.511C766.784 234.788 768.966 231.682 772.057 229.5C775.178 227.288 778.739 226.182 782.739 226.182C783.648 226.182 784.663 226.227 785.784 226.318C786.936 226.379 787.89 226.485 788.648 226.636V241.773C787.951 241.53 786.845 241.318 785.33 241.136C783.845 240.924 782.405 240.818 781.011 240.818C778.011 240.818 775.314 241.47 772.92 242.773C770.557 244.045 768.693 245.818 767.33 248.091C765.966 250.364 765.284 252.985 765.284 255.955V297H748.83ZM827.614 298.364C820.614 298.364 814.568 296.909 809.477 294C804.417 291.061 800.523 286.909 797.795 281.545C795.068 276.152 793.705 269.803 793.705 262.5C793.705 255.318 795.068 249.015 797.795 243.591C800.553 238.136 804.402 233.894 809.341 230.864C814.28 227.803 820.083 226.273 826.75 226.273C831.053 226.273 835.114 226.97 838.932 228.364C842.78 229.727 846.174 231.848 849.114 234.727C852.083 237.606 854.417 241.273 856.114 245.727C857.811 250.152 858.659 255.424 858.659 261.545V266.591H801.432V255.5H842.886C842.856 252.348 842.174 249.545 840.841 247.091C839.508 244.606 837.644 242.652 835.25 241.227C832.886 239.803 830.129 239.091 826.977 239.091C823.614 239.091 820.659 239.909 818.114 241.545C815.568 243.152 813.583 245.273 812.159 247.909C810.765 250.515 810.053 253.379 810.023 256.5V266.182C810.023 270.242 810.765 273.727 812.25 276.636C813.735 279.515 815.811 281.727 818.477 283.273C821.144 284.788 824.265 285.545 827.841 285.545C830.235 285.545 832.402 285.212 834.341 284.545C836.28 283.848 837.962 282.833 839.386 281.5C840.811 280.167 841.886 278.515 842.614 276.545L857.977 278.273C857.008 282.333 855.159 285.879 852.432 288.909C849.735 291.909 846.28 294.242 842.068 295.909C837.856 297.545 833.038 298.364 827.614 298.364Z" fill="#FEFEFE"/>
<path fill-rule="evenodd" clip-rule="evenodd" d="M520.683 49.5576C551.722 49.5576 581.176 56.0819 607.646 67.7827C576.382 49.4865 539.991 39 501.152 39C403.617 39 321.527 105.131 297.275 195L320.151 195C345.056 111.032 425.407 49.5576 520.683 49.5576ZM320.359 306H297.465C321.952 395.514 403.869 461.303 501.152 461.303C539.991 461.303 576.382 450.817 607.646 432.521C581.176 444.221 551.722 450.746 520.683 450.746C425.671 450.746 345.501 389.611 320.359 306Z" fill="#FF7B00"/>
<path fill-rule="evenodd" clip-rule="evenodd" d="M507.999 73.6289C480.685 73.6289 454.765 79.3702 431.472 89.6669C458.984 73.5663 491.008 64.3382 525.187 64.3382C608.605 64.3382 679.184 119.308 702.678 195H682.356C658.281 124.519 589.318 73.6289 507.999 73.6289ZM682.117 306C657.826 376.12 589.05 426.674 507.999 426.674C480.685 426.674 454.765 420.933 431.472 410.636C458.984 426.737 491.008 435.965 525.187 435.965C608.349 435.965 678.751 381.333 702.461 306H682.117Z" fill="#FEFEFE"/>
</svg>
