<svg width="500" height="500" viewBox="0 0 500 500" fill="none" xmlns="http://www.w3.org/2000/svg">
<path fill-rule="evenodd" clip-rule="evenodd" d="M373.978 38.434C343.231 24.8423 309.016 17.2637 272.962 17.2637C139.194 17.2637 30.7538 121.586 30.7538 250.274C30.7538 378.962 139.194 483.284 272.962 483.284C309.016 483.284 343.231 475.706 373.978 462.114C337.661 483.367 295.39 495.548 250.274 495.548C114.813 495.548 5 385.735 5 250.274C5 114.813 114.813 5 250.274 5C295.39 5 337.661 17.1811 373.978 38.434Z" fill="#FF7B00"/>
<path fill-rule="evenodd" clip-rule="evenodd" d="M169.333 63.8548C196.391 51.8941 226.5 45.2249 258.228 45.2249C375.943 45.2249 471.371 137.029 471.371 250.274C471.371 363.519 375.943 455.323 258.228 455.323C226.5 455.323 196.391 448.654 169.334 436.693C201.292 455.396 238.491 466.115 278.193 466.115C397.399 466.115 494.034 369.48 494.034 250.274C494.034 131.068 397.399 34.4329 278.193 34.4329C238.491 34.4329 201.292 45.1523 169.333 63.8548Z" fill="#FEFEFE"/>
</svg>
